<mxfile host="app.diagrams.net" modified="2021-05-20T10:41:10.456Z" agent="5.0 (Windows NT 10.0; Win64; x64) AppleWebKit/537.36 (KHTML, like Gecko) Chrome/90.0.4430.212 Safari/537.36 Edg/90.0.818.62" etag="os15M37eM7wnGua9G4Vc" version="14.6.13" type="github">
  <diagram id="qHZkUcMQa_o7JqSWX5Eb" name="Page-1">
    <mxGraphModel dx="782" dy="525" grid="0" gridSize="10" guides="1" tooltips="1" connect="1" arrows="1" fold="1" page="1" pageScale="1" pageWidth="827" pageHeight="1169" math="0" shadow="0">
      <root>
        <mxCell id="0" />
        <mxCell id="1" parent="0" />
        <mxCell id="ysjc0g_1B0zVoJ-FmQ89-2" value="data[0]" style="rounded=0;whiteSpace=wrap;html=1;fillColor=#d5e8d4;strokeColor=#82b366;" vertex="1" parent="1">
          <mxGeometry x="100" y="109" width="110" height="40" as="geometry" />
        </mxCell>
        <mxCell id="ysjc0g_1B0zVoJ-FmQ89-3" value="data[1]" style="rounded=0;whiteSpace=wrap;html=1;fillColor=#d5e8d4;strokeColor=#82b366;" vertex="1" parent="1">
          <mxGeometry x="100" y="149" width="110" height="40" as="geometry" />
        </mxCell>
        <mxCell id="ysjc0g_1B0zVoJ-FmQ89-4" value="data[2]" style="rounded=0;whiteSpace=wrap;html=1;fillColor=#d5e8d4;strokeColor=#82b366;" vertex="1" parent="1">
          <mxGeometry x="100" y="189" width="110" height="40" as="geometry" />
        </mxCell>
        <mxCell id="ysjc0g_1B0zVoJ-FmQ89-5" value="data[3]" style="rounded=0;whiteSpace=wrap;html=1;fillColor=#d5e8d4;strokeColor=#82b366;" vertex="1" parent="1">
          <mxGeometry x="100" y="229" width="110" height="40" as="geometry" />
        </mxCell>
        <mxCell id="ysjc0g_1B0zVoJ-FmQ89-6" value="data[4]" style="rounded=0;whiteSpace=wrap;html=1;fillColor=#d5e8d4;strokeColor=#82b366;" vertex="1" parent="1">
          <mxGeometry x="100" y="269" width="110" height="40" as="geometry" />
        </mxCell>
        <mxCell id="ysjc0g_1B0zVoJ-FmQ89-7" value="data[5]" style="rounded=0;whiteSpace=wrap;html=1;fillColor=#d5e8d4;strokeColor=#82b366;" vertex="1" parent="1">
          <mxGeometry x="100" y="309" width="110" height="40" as="geometry" />
        </mxCell>
        <mxCell id="ysjc0g_1B0zVoJ-FmQ89-8" value="data[6]" style="rounded=0;whiteSpace=wrap;html=1;fillColor=#d5e8d4;strokeColor=#82b366;" vertex="1" parent="1">
          <mxGeometry x="100" y="349" width="110" height="40" as="geometry" />
        </mxCell>
        <mxCell id="ysjc0g_1B0zVoJ-FmQ89-9" value="data[7]" style="rounded=0;whiteSpace=wrap;html=1;fillColor=#d5e8d4;strokeColor=#82b366;" vertex="1" parent="1">
          <mxGeometry x="100" y="389" width="110" height="40" as="geometry" />
        </mxCell>
        <mxCell id="ysjc0g_1B0zVoJ-FmQ89-10" value="data[8]" style="rounded=0;whiteSpace=wrap;html=1;fillColor=#d5e8d4;strokeColor=#82b366;" vertex="1" parent="1">
          <mxGeometry x="100" y="429" width="110" height="40" as="geometry" />
        </mxCell>
        <mxCell id="ysjc0g_1B0zVoJ-FmQ89-11" value="data[9]" style="rounded=0;whiteSpace=wrap;html=1;fillColor=#d5e8d4;strokeColor=#82b366;" vertex="1" parent="1">
          <mxGeometry x="100" y="469" width="110" height="40" as="geometry" />
        </mxCell>
        <mxCell id="ysjc0g_1B0zVoJ-FmQ89-12" value="" style="rounded=0;whiteSpace=wrap;html=1;fillColor=#fff2cc;strokeColor=#d6b656;" vertex="1" parent="1">
          <mxGeometry x="100" y="69" width="110" height="40" as="geometry" />
        </mxCell>
        <mxCell id="ysjc0g_1B0zVoJ-FmQ89-13" value="" style="rounded=0;whiteSpace=wrap;html=1;fillColor=#fff2cc;strokeColor=#d6b656;" vertex="1" parent="1">
          <mxGeometry x="100" y="509" width="110" height="40" as="geometry" />
        </mxCell>
        <mxCell id="ysjc0g_1B0zVoJ-FmQ89-14" value="1" style="ellipse;whiteSpace=wrap;html=1;aspect=fixed;fillColor=#f5f5f5;strokeColor=#666666;gradientColor=#b3b3b3;" vertex="1" parent="1">
          <mxGeometry x="100" y="114" width="30" height="30" as="geometry" />
        </mxCell>
        <mxCell id="ysjc0g_1B0zVoJ-FmQ89-15" value="5" style="ellipse;whiteSpace=wrap;html=1;aspect=fixed;fillColor=#f5f5f5;strokeColor=#666666;gradientColor=#b3b3b3;" vertex="1" parent="1">
          <mxGeometry x="100" y="274" width="30" height="30" as="geometry" />
        </mxCell>
        <mxCell id="ysjc0g_1B0zVoJ-FmQ89-16" value="4" style="ellipse;whiteSpace=wrap;html=1;aspect=fixed;fillColor=#f5f5f5;strokeColor=#666666;gradientColor=#b3b3b3;" vertex="1" parent="1">
          <mxGeometry x="100" y="234" width="30" height="30" as="geometry" />
        </mxCell>
        <mxCell id="ysjc0g_1B0zVoJ-FmQ89-17" value="3" style="ellipse;whiteSpace=wrap;html=1;aspect=fixed;fillColor=#f5f5f5;strokeColor=#666666;gradientColor=#b3b3b3;" vertex="1" parent="1">
          <mxGeometry x="100" y="194" width="30" height="30" as="geometry" />
        </mxCell>
        <mxCell id="ysjc0g_1B0zVoJ-FmQ89-18" value="2" style="ellipse;whiteSpace=wrap;html=1;aspect=fixed;fillColor=#f5f5f5;strokeColor=#666666;gradientColor=#b3b3b3;" vertex="1" parent="1">
          <mxGeometry x="100" y="154" width="30" height="30" as="geometry" />
        </mxCell>
        <mxCell id="ysjc0g_1B0zVoJ-FmQ89-19" value="内存" style="rounded=0;whiteSpace=wrap;html=1;fillColor=#dae8fc;strokeColor=#6c8ebf;" vertex="1" parent="1">
          <mxGeometry x="100" y="29" width="110" height="40" as="geometry" />
        </mxCell>
        <mxCell id="ysjc0g_1B0zVoJ-FmQ89-22" value="&lt;span&gt;&lt;font style=&quot;font-size: 13px&quot; color=&quot;#ffffff&quot;&gt;&lt;b&gt;删除第3个元素，将第3个后面的所有元素向前移动一位&lt;/b&gt;&lt;/font&gt;&lt;/span&gt;" style="whiteSpace=wrap;html=1;shape=mxgraph.basic.roundRectCallout;dx=30;dy=15;size=5;boundedLbl=1;fillColor=#1ba1e2;fontColor=#ffffff;strokeColor=#1BA1E2;" vertex="1" parent="1">
          <mxGeometry x="242.5" y="100" width="137.5" height="89" as="geometry" />
        </mxCell>
        <mxCell id="ysjc0g_1B0zVoJ-FmQ89-23" value="data[0]" style="rounded=0;whiteSpace=wrap;html=1;fillColor=#d5e8d4;strokeColor=#82b366;" vertex="1" parent="1">
          <mxGeometry x="460" y="109" width="110" height="40" as="geometry" />
        </mxCell>
        <mxCell id="ysjc0g_1B0zVoJ-FmQ89-24" value="data[1]" style="rounded=0;whiteSpace=wrap;html=1;fillColor=#d5e8d4;strokeColor=#82b366;" vertex="1" parent="1">
          <mxGeometry x="460" y="149" width="110" height="40" as="geometry" />
        </mxCell>
        <mxCell id="ysjc0g_1B0zVoJ-FmQ89-25" value="data[2]" style="rounded=0;whiteSpace=wrap;html=1;fillColor=#d5e8d4;strokeColor=#82b366;" vertex="1" parent="1">
          <mxGeometry x="460" y="189" width="110" height="40" as="geometry" />
        </mxCell>
        <mxCell id="ysjc0g_1B0zVoJ-FmQ89-26" value="data[3]" style="rounded=0;whiteSpace=wrap;html=1;fillColor=#d5e8d4;strokeColor=#82b366;" vertex="1" parent="1">
          <mxGeometry x="460" y="229" width="110" height="40" as="geometry" />
        </mxCell>
        <mxCell id="ysjc0g_1B0zVoJ-FmQ89-27" value="data[4]" style="rounded=0;whiteSpace=wrap;html=1;fillColor=#d5e8d4;strokeColor=#82b366;" vertex="1" parent="1">
          <mxGeometry x="460" y="269" width="110" height="40" as="geometry" />
        </mxCell>
        <mxCell id="ysjc0g_1B0zVoJ-FmQ89-28" value="data[5]" style="rounded=0;whiteSpace=wrap;html=1;fillColor=#d5e8d4;strokeColor=#82b366;" vertex="1" parent="1">
          <mxGeometry x="460" y="309" width="110" height="40" as="geometry" />
        </mxCell>
        <mxCell id="ysjc0g_1B0zVoJ-FmQ89-29" value="data[6]" style="rounded=0;whiteSpace=wrap;html=1;fillColor=#d5e8d4;strokeColor=#82b366;" vertex="1" parent="1">
          <mxGeometry x="460" y="349" width="110" height="40" as="geometry" />
        </mxCell>
        <mxCell id="ysjc0g_1B0zVoJ-FmQ89-30" value="data[7]" style="rounded=0;whiteSpace=wrap;html=1;fillColor=#d5e8d4;strokeColor=#82b366;" vertex="1" parent="1">
          <mxGeometry x="460" y="389" width="110" height="40" as="geometry" />
        </mxCell>
        <mxCell id="ysjc0g_1B0zVoJ-FmQ89-31" value="data[8]" style="rounded=0;whiteSpace=wrap;html=1;fillColor=#d5e8d4;strokeColor=#82b366;" vertex="1" parent="1">
          <mxGeometry x="460" y="429" width="110" height="40" as="geometry" />
        </mxCell>
        <mxCell id="ysjc0g_1B0zVoJ-FmQ89-32" value="data[9]" style="rounded=0;whiteSpace=wrap;html=1;fillColor=#d5e8d4;strokeColor=#82b366;" vertex="1" parent="1">
          <mxGeometry x="460" y="469" width="110" height="40" as="geometry" />
        </mxCell>
        <mxCell id="ysjc0g_1B0zVoJ-FmQ89-33" value="" style="rounded=0;whiteSpace=wrap;html=1;fillColor=#fff2cc;strokeColor=#d6b656;" vertex="1" parent="1">
          <mxGeometry x="460" y="69" width="110" height="40" as="geometry" />
        </mxCell>
        <mxCell id="ysjc0g_1B0zVoJ-FmQ89-34" value="" style="rounded=0;whiteSpace=wrap;html=1;fillColor=#fff2cc;strokeColor=#d6b656;" vertex="1" parent="1">
          <mxGeometry x="460" y="509" width="110" height="40" as="geometry" />
        </mxCell>
        <mxCell id="ysjc0g_1B0zVoJ-FmQ89-35" value="1" style="ellipse;whiteSpace=wrap;html=1;aspect=fixed;fillColor=#f5f5f5;strokeColor=#666666;gradientColor=#b3b3b3;" vertex="1" parent="1">
          <mxGeometry x="460" y="114" width="30" height="30" as="geometry" />
        </mxCell>
        <mxCell id="ysjc0g_1B0zVoJ-FmQ89-36" value="5" style="ellipse;whiteSpace=wrap;html=1;aspect=fixed;fillColor=#f5f5f5;strokeColor=#666666;gradientColor=#b3b3b3;" vertex="1" parent="1">
          <mxGeometry x="460" y="234" width="30" height="30" as="geometry" />
        </mxCell>
        <mxCell id="ysjc0g_1B0zVoJ-FmQ89-37" value="4" style="ellipse;whiteSpace=wrap;html=1;aspect=fixed;fillColor=#f5f5f5;strokeColor=#666666;gradientColor=#b3b3b3;" vertex="1" parent="1">
          <mxGeometry x="460" y="194" width="30" height="30" as="geometry" />
        </mxCell>
        <mxCell id="ysjc0g_1B0zVoJ-FmQ89-38" value="3" style="ellipse;whiteSpace=wrap;html=1;aspect=fixed;fillColor=#f5f5f5;strokeColor=#666666;gradientColor=#b3b3b3;" vertex="1" parent="1">
          <mxGeometry x="670" y="164" width="30" height="30" as="geometry" />
        </mxCell>
        <mxCell id="ysjc0g_1B0zVoJ-FmQ89-39" value="2" style="ellipse;whiteSpace=wrap;html=1;aspect=fixed;fillColor=#f5f5f5;strokeColor=#666666;gradientColor=#b3b3b3;" vertex="1" parent="1">
          <mxGeometry x="460" y="154" width="30" height="30" as="geometry" />
        </mxCell>
        <mxCell id="ysjc0g_1B0zVoJ-FmQ89-40" value="内存" style="rounded=0;whiteSpace=wrap;html=1;fillColor=#dae8fc;strokeColor=#6c8ebf;" vertex="1" parent="1">
          <mxGeometry x="460" y="29" width="110" height="40" as="geometry" />
        </mxCell>
        <mxCell id="ysjc0g_1B0zVoJ-FmQ89-41" value="" style="html=1;shadow=0;dashed=0;align=center;verticalAlign=middle;shape=mxgraph.arrows2.arrow;dy=0.6;dx=40;notch=0;fillColor=#60a917;strokeColor=#2D7600;fontColor=#ffffff;" vertex="1" parent="1">
          <mxGeometry x="290" y="250" width="120" height="34" as="geometry" />
        </mxCell>
        <mxCell id="ysjc0g_1B0zVoJ-FmQ89-46" value="&lt;font style=&quot;font-size: 13px&quot; color=&quot;#ffffff&quot;&gt;&lt;b&gt;溜了溜了&lt;/b&gt;&lt;/font&gt;" style="whiteSpace=wrap;html=1;shape=mxgraph.basic.cloud_callout;fillColor=#0050ef;strokeColor=#001DBC;fontColor=#ffffff;" vertex="1" parent="1">
          <mxGeometry x="690" y="99" width="90" height="61" as="geometry" />
        </mxCell>
      </root>
    </mxGraphModel>
  </diagram>
</mxfile>
